<svg width="13" height="14" viewBox="0 0 13 14" fill="none" xmlns="http://www.w3.org/2000/svg">
<path fill-rule="evenodd" clip-rule="evenodd" d="M7.79272 8.26389C6.3608 9.69581 4.03919 9.69581 2.60727 8.26389C1.17535 6.83197 1.17535 4.51036 2.60727 3.07844C4.03919 1.64652 6.3608 1.64652 7.79272 3.07844C9.22464 4.51036 9.22464 6.83197 7.79272 8.26389ZM8.2331 9.64685C6.27288 11.1462 3.45729 10.9995 1.66446 9.2067C-0.288158 7.25408 -0.288158 4.08825 1.66446 2.13563C3.61708 0.18301 6.78291 0.18301 8.73553 2.13563C10.5283 3.92838 10.6751 6.7438 9.17588 8.70401L12.7426 12.2707L11.7998 13.2135L8.2331 9.64685Z" fill="white"/>
</svg>
